<svg width="512" height="512" xmlns="http://www.w3.org/2000/svg"><g fill="none" fill-rule="evenodd"><path fill="#8D8EA0" d="M0 0h512v512H0z"/><path d="M151.087 111.134c183.951-23.244 241.936 34.864 241.936 34.864.565 46.304-4.23 86.406-11.398 120.11-3.481-2.413-7.447-4.352-11.807-5.675-20.207-6.131-41.244 3.302-46.987 21.067-5.745 17.767 5.98 37.139 26.187 43.27 5.171 1.568 10.398 2.118 15.408 1.77-16.654 45.801-34.386 69.322-34.386 69.322-76.98 30.022-172.954-12.59-172.954-12.59-9.928-17.23-16.004-38.98-19.399-62.639 7.485 2.836 15.732 4.407 24.397 4.407 34.05 0 61.654-24.269 61.654-54.206 0-29.937-27.603-54.205-61.654-54.205-9.457 0-18.417 1.872-26.426 5.218 4.21-60.256 15.43-110.713 15.43-110.713zm185.144 174.432c3.64-11.258 16.973-17.236 29.778-13.35 12.805 3.885 20.236 16.16 16.596 27.419-3.64 11.258-16.972 17.236-29.778 13.35-12.805-3.884-20.235-16.16-16.596-27.419zm-174.147-56.505c26.24 0 47.513 18.704 47.513 41.773 0 23.071-21.272 41.774-47.513 41.774-26.24 0-47.512-18.703-47.512-41.774 0-23.07 21.272-41.773 47.512-41.773z" fill="#E3E6EC"/></g></svg>