<?xml version="1.0" encoding="UTF-8"?>
<svg width="113px" height="32px" viewBox="0 0 113 32" version="1.1" xmlns="http://www.w3.org/2000/svg" xmlns:xlink="http://www.w3.org/1999/xlink">
    <title>Logo</title>
    <defs>
        <path d="M35.0714284,0 C40.5942759,0 45.0714284,4.4771525 45.0714284,10 C45.0714284,15.5228475 40.5942759,20 35.0714284,20 C34.8289305,20 34.5884486,19.9913684 34.3502732,19.9743956 L16.142857,19.2857143 L33.191857,17.999 L28.9949886,17.9427428 C27.7661727,17.0012411 26.7621769,15.7810169 26.0774697,14.376539 L19.3571427,13.9285714 L25.7032729,13.5059799 C25.294789,12.41498 25.0714284,11.2335743 25.0714284,10 C25.0714284,8.76671415 25.2946845,7.58557255 25.7029863,6.49478552 L19.3571427,6.07142857 L26.0775824,5.62322976 C26.7623646,4.21869018 27.7664675,2.998431 28.9954059,2.0569375 L33.191857,2 L16.142857,0.714285714 L34.3014494,0.0292028214 C34.5555718,0.00985235054 34.8123495,0 35.0714284,0 Z M35.0714284,6.25 C33.0003606,6.25 31.3214284,7.92893219 31.3214284,10 C31.3214284,12.0710678 33.0003606,13.75 35.0714284,13.75 C37.1424962,13.75 38.8214284,12.0710678 38.8214284,10 C38.8214284,7.92893219 37.1424962,6.25 35.0714284,6.25 Z" id="path-1"></path>
        <filter x="-31.1%" y="-45.0%" width="162.2%" height="190.0%" filterUnits="objectBoundingBox" id="filter-2">
            <feOffset dx="0" dy="0" in="SourceAlpha" result="shadowOffsetOuter1"></feOffset>
            <feGaussianBlur stdDeviation="3" in="shadowOffsetOuter1" result="shadowBlurOuter1"></feGaussianBlur>
            <feColorMatrix values="0 0 0 0 1   0 0 0 0 0.54359917   0 0 0 0 0.0980392157  0 0 0 1 0" type="matrix" in="shadowBlurOuter1"></feColorMatrix>
        </filter>
        <filter x="-24.2%" y="-35.0%" width="148.4%" height="170.0%" filterUnits="objectBoundingBox" id="filter-3">
            <feMorphology radius="1" operator="erode" in="SourceAlpha" result="shadowSpreadInner1"></feMorphology>
            <feGaussianBlur stdDeviation="0.5" in="shadowSpreadInner1" result="shadowBlurInner1"></feGaussianBlur>
            <feOffset dx="0" dy="0" in="shadowBlurInner1" result="shadowOffsetInner1"></feOffset>
            <feComposite in="shadowOffsetInner1" in2="SourceAlpha" operator="arithmetic" k2="-1" k3="1" result="shadowInnerInner1"></feComposite>
            <feColorMatrix values="0 0 0 0 1   0 0 0 0 0.989929373   0 0 0 0 0.224561738  0 0 0 1 0" type="matrix" in="shadowInnerInner1"></feColorMatrix>
        </filter>
    </defs>
    <g id="Symbols" stroke="none" stroke-width="1" fill="none" fill-rule="evenodd">
        <g id="Navigation-/-Battle" transform="translate(0.000000, -9.000000)" fill-rule="nonzero">
            <g id="Group-2" transform="translate(0.000000, 15.000000)">
                <path d="M90.071429,18.5714286 L90.071429,1.42857143 C90.071429,1.03408232 90.3912256,0.714285714 90.7857147,0.714285714 L95.7857147,0.714285714 C96.1802038,0.714285714 96.5000004,1.03408232 96.5000004,1.42857143 L96.5000004,18.5714286 C96.5000004,18.9659177 96.1802038,19.2857143 95.7857147,19.2857143 L90.7857147,19.2857143 C90.3912256,19.2857143 90.071429,18.9659177 90.071429,18.5714286 Z" id="Path" fill="#FFFFFF"></path>
                <path d="M7.5,0.714285714 C12.7571429,0.714285714 15.542328,2.62095238 15.7142857,7.14285714 C15.542328,9.30666667 14.6470899,11.2380952 13.2142857,12.1428571 L16.5272833,18.7688523 C16.6154937,18.9452732 16.543985,19.1597993 16.3675641,19.2480097 C16.3179729,19.2728053 16.2632897,19.2857143 16.207845,19.2857143 L10.1482251,19.2857143 C9.84538023,19.2857143 9.57545339,19.094737 9.47466053,18.8091572 L7.5,13.2142857 L6.07142857,13.2142857 L6.07142857,19.2857143 L0.714285714,19.2857143 C0.319796607,19.2857143 1.38715167e-13,18.9659177 1.38555833e-13,18.5714286 L1.38555833e-13,1.42857143 C1.38507522e-13,1.03408232 0.319796607,0.714285714 0.714285714,0.714285714 L7.5,0.714285714 Z M7.5,5.35714286 L6.07142857,5.35714286 L6.07142857,8.92857143 L7.5,8.92857143 C8.55263158,8.92857143 8.92857143,8.72593718 8.92857143,7.14285714 C8.92857143,5.66109422 8.60275689,5.35714286 7.5,5.35714286 Z" id="Combined-Shape" fill="#FFFFFF"></path>
                <path d="M81.4999997,0.714285714 C86.18771,0.714285714 88.4079387,2.7447619 88.285714,5.71428571 C88.4079387,7.52380952 87.495178,8.76190476 86.1428569,9.28571429 L86.1428569,9.64285714 C88.0132314,10.1733333 88.9999997,11.6342857 88.9999997,13.5714286 C88.9999997,17.1314286 86.7304325,19.2857143 81.4999997,19.2857143 L73.9999997,19.2857143 C73.6055106,19.2857143 73.285714,18.9659177 73.285714,18.5714286 L73.285714,1.42857143 C73.285714,1.03408232 73.6055106,0.714285714 73.9999997,0.714285714 L81.4999997,0.714285714 Z M81.8571426,12.1428571 L79.3571426,12.1428571 L79.3571426,14.6428571 L81.8571426,14.6428571 C82.7328764,14.6428571 82.9285711,14.4178571 82.9285711,13.5714286 C82.9285711,12.4678571 82.7328764,12.1428571 81.8571426,12.1428571 Z M81.4999997,5.71428571 L79.3571426,5.71428571 L79.3571426,7.85714286 L81.4999997,7.85714286 C82.3780878,7.85714286 82.5714283,7.60368664 82.5714283,6.78571429 C82.5714283,5.96774194 82.3297527,5.71428571 81.4999997,5.71428571 Z" id="Combined-Shape" fill="#FFFFFF"></path>
                <path d="M65.8786696,14.1104762 L71.4829197,14.1104762 C71.8774088,14.1104762 72.1972054,14.4302728 72.1972054,14.8247619 C72.1972054,14.830388 72.197139,14.8360138 72.1970061,14.8416383 L72.1084591,18.588305 C72.0992938,18.9761105 71.7822866,19.2857143 71.3943727,19.2857143 L60.4285717,19.2857143 C60.0340826,19.2857143 59.714286,18.9659177 59.714286,18.5714286 L59.714286,1.42857143 C59.714286,1.03408232 60.0340826,0.714285714 60.4285717,0.714285714 L65.1643838,0.714285714 C65.558873,0.714285714 65.8786696,1.03408232 65.8786696,1.42857143 L65.8786696,14.1104762 L65.8786696,14.1104762 Z" id="Path" fill="#FFFFFF"></path>
                <path d="M52.3072406,14.1104762 L57.9114907,14.1104762 C58.3059798,14.1104762 58.6257764,14.4302728 58.6257764,14.8247619 C58.6257764,14.830388 58.62571,14.8360138 58.6255771,14.8416383 L58.5370301,18.588305 C58.5278648,18.9761105 58.2108576,19.2857143 57.8229437,19.2857143 L46.8571427,19.2857143 C46.4626536,19.2857143 46.142857,18.9659177 46.142857,18.5714286 L46.142857,1.42857143 C46.142857,1.03408232 46.4626536,0.714285714 46.8571427,0.714285714 L51.5929548,0.714285714 C51.987444,0.714285714 52.3072406,1.03408232 52.3072406,1.42857143 L52.3072406,14.1104762 L52.3072406,14.1104762 Z" id="Path" fill="#FFFFFF"></path>
                <path d="M111.483042,5.91428571 L107.992262,5.91428571 L107.992262,5.91428571 L107.992262,18.5714286 C107.992262,18.9659177 107.672466,19.2857143 107.277977,19.2857143 L102.532143,19.2857143 C102.137654,19.2857143 101.817858,18.9659177 101.817858,18.5714286 L101.817858,5.91428571 L101.817858,5.91428571 L98.3026729,5.91428571 C97.9081838,5.91428571 97.5883871,5.59448911 97.5883871,5.2 C97.5883871,5.19441379 97.5884527,5.18882777 97.5885837,5.1832431 L97.6770845,1.41181453 C97.6861859,1.02396098 98.0032133,0.714285714 98.3911736,0.714285714 L111.394541,0.714285714 C111.782502,0.714285714 112.099529,1.02396098 112.108631,1.41181453 L112.197131,5.1832431 C112.206386,5.57762364 111.89418,5.90483455 111.499799,5.91408913 C111.494215,5.91422018 111.488628,5.91428571 111.483042,5.91428571 Z" id="Path" fill="#FFFFFF"></path>
                <g id="Combined-Shape">
                    <use fill="black" fillOpacity="1" filter="url(#filter-2)" xlink:href="#path-1"></use>
                    <use fill="#FFFFC1" xlink:href="#path-1"></use>
                    <use fill="black" fillOpacity="1" filter="url(#filter-3)" xlink:href="#path-1"></use>
                </g>
            </g>
        </g>
    </g>
</svg>